<?xml version="1.0" standalone="no"?><!DOCTYPE svg PUBLIC "-//W3C//DTD SVG 1.1//EN" "http://www.w3.org/Graphics/SVG/1.1/DTD/svg11.dtd"><svg width="200" height="200" viewBox="0 0 200 200" version="1.1" xmlns="http://www.w3.org/2000/svg" xmlns:xlink="http://www.w3.org/1999/xlink"><defs><style type="text/css"><![CDATA[
@font-face { font-family: ifont; src: url("//at.alicdn.com/t/font_1442373896_4754455.eot?#iefix") format("embedded-opentype"), url("//at.alicdn.com/t/font_1442373896_4754455.woff") format("woff"), url("//at.alicdn.com/t/font_1442373896_4754455.ttf") format("truetype"), url("//at.alicdn.com/t/font_1442373896_4754455.svg#ifont") format("svg"); }

]]></style></defs><g class="transform-group"><g transform="scale(0.1953125, 0.1953125)"><path d="M390.3808 634.1184c-61.28512 34.02752-70.38464-19.10016-70.38464-19.10016l-76.8128-178.5408c-29.55648-84.84224 25.58592-38.25664 25.58592-38.25664s47.31392 35.64288 83.2128 57.37088c35.8848 21.728 76.78464 6.37184 76.78464 6.37184L930.9312 231.09504C838.27456 116.2688 685.23392 41.184 511.96416 41.184 229.1968 41.184 0 240.99584 0 487.49184c0 141.78432 75.89888 267.968 194.112 349.7664l-21.31456 122.06976s-10.38592 35.64288 25.62816 19.11424c24.54272-11.27168 87.11296-51.65696 124.35584-76.22784 58.55616 20.32896 122.34112 31.61344 189.22624 31.61344C794.7456 933.82912 1024 734.01728 1024 487.52c0-71.3984-19.31392-138.82624-53.5424-198.6688-159.99744 95.85664-532.12032 318.6816-580.0768 345.2672z" fill="#11cd6e"></path></g></g></svg>